<svg width="100%" height="100%" viewBox="0 0 384 36" fill="none" xmlns="http://www.w3.org/2000/svg">
    <path d="M11.9466 28L3.21656 6.202C3.22856 6.478 3.25256 6.94 3.28856 7.588C3.33656 8.224 3.38456 8.986 3.43256 9.874C3.49256 10.75 3.54056 11.68 3.57656 12.664C3.61256 13.648 3.63056 14.62 3.63056 15.58V28H0.732563V3.214H4.96256L13.8366 25.102C13.8246 24.754 13.7826 24.118 13.7106 23.194C13.6386 22.258 13.5726 21.13 13.5126 19.81C13.4526 18.49 13.4226 17.092 13.4226 15.616V3.214H16.3206V28H11.9466ZM30.1485 8.65C31.9365 8.65 33.4305 9.058 34.6305 9.874C35.8425 10.678 36.7485 11.818 37.3485 13.294C37.9605 14.77 38.2665 16.51 38.2665 18.514C38.2665 20.446 37.9545 22.156 37.3305 23.644C36.7065 25.132 35.7885 26.302 34.5765 27.154C33.3765 27.994 31.8885 28.414 30.1125 28.414C28.3365 28.414 26.8425 28.006 25.6305 27.19C24.4185 26.374 23.5005 25.228 22.8765 23.752C22.2645 22.264 21.9585 20.53 21.9585 18.55C21.9585 16.594 22.2705 14.872 22.8945 13.384C23.5185 11.896 24.4365 10.738 25.6485 9.91C26.8725 9.07 28.3725 8.65 30.1485 8.65ZM30.1485 11.116C28.5165 11.116 27.2805 11.722 26.4405 12.934C25.6125 14.134 25.1985 16.006 25.1985 18.55C25.1985 21.046 25.6065 22.9 26.4225 24.112C27.2505 25.324 28.4805 25.93 30.1125 25.93C31.7445 25.93 32.9685 25.324 33.7845 24.112C34.6125 22.9 35.0265 21.034 35.0265 18.514C35.0265 15.994 34.6185 14.134 33.8025 12.934C32.9865 11.722 31.7685 11.116 30.1485 11.116ZM80.3764 3.214V5.716H74.8684V25.498H80.3764V28H66.1924V25.498H71.7004V5.716H66.1924V3.214H80.3764ZM100.18 8.65C100.792 8.65 101.374 8.782 101.926 9.046C102.49 9.31 102.952 9.82 103.312 10.576C103.672 11.332 103.852 12.436 103.852 13.888V28H101.044V14.374C101.044 13.186 100.972 12.328 100.828 11.8C100.684 11.272 100.27 11.008 99.5863 11.008C99.0223 11.008 98.4583 11.188 97.8943 11.548C97.3423 11.896 96.8023 12.472 96.2743 13.276V28H93.4483V14.374C93.4483 13.186 93.3763 12.328 93.2323 11.8C93.0883 11.272 92.6743 11.008 91.9903 11.008C91.4023 11.008 90.8323 11.188 90.2803 11.548C89.7403 11.896 89.2063 12.472 88.6783 13.276V28H85.8883V9.046H88.2643L88.4443 11.242C88.9603 10.51 89.5363 9.898 90.1723 9.406C90.8203 8.902 91.6183 8.65 92.5663 8.65C93.2863 8.65 93.9643 8.824 94.6003 9.172C95.2363 9.508 95.7043 10.168 96.0043 11.152C96.5203 10.408 97.1023 9.808 97.7503 9.352C98.3983 8.884 99.2083 8.65 100.18 8.65ZM122.846 23.86C122.846 24.616 122.972 25.168 123.224 25.516C123.476 25.864 123.866 26.122 124.394 26.29L123.656 28.414C122.84 28.306 122.126 28.048 121.514 27.64C120.902 27.22 120.458 26.59 120.182 25.75C119.498 26.626 118.646 27.292 117.626 27.748C116.606 28.192 115.478 28.414 114.242 28.414C112.346 28.414 110.852 27.88 109.76 26.812C108.668 25.744 108.122 24.328 108.122 22.564C108.122 20.608 108.884 19.108 110.408 18.064C111.932 17.02 114.134 16.498 117.014 16.498H119.804V14.914C119.804 13.546 119.402 12.58 118.598 12.016C117.806 11.44 116.702 11.152 115.286 11.152C114.662 11.152 113.93 11.23 113.09 11.386C112.25 11.53 111.338 11.776 110.354 12.124L109.562 9.838C110.726 9.406 111.818 9.1 112.838 8.92C113.858 8.74 114.83 8.65 115.754 8.65C118.118 8.65 119.888 9.202 121.064 10.306C122.252 11.398 122.846 12.886 122.846 14.77V23.86ZM115.016 26.11C115.952 26.11 116.846 25.876 117.698 25.408C118.55 24.928 119.252 24.268 119.804 23.428V18.55H117.068C114.98 18.55 113.504 18.91 112.64 19.63C111.788 20.35 111.362 21.316 111.362 22.528C111.362 23.704 111.662 24.598 112.262 25.21C112.874 25.81 113.792 26.11 115.016 26.11ZM146.268 7.03L147.204 9.874C146.4 10.126 145.542 10.282 144.63 10.342C143.718 10.402 142.728 10.432 141.66 10.432C142.752 10.936 143.574 11.59 144.126 12.394C144.678 13.186 144.954 14.122 144.954 15.202C144.954 16.45 144.672 17.56 144.108 18.532C143.544 19.504 142.728 20.266 141.66 20.818C140.604 21.37 139.326 21.646 137.826 21.646C137.19 21.646 136.656 21.616 136.224 21.556C135.804 21.496 135.396 21.406 135 21.286C134.712 21.478 134.472 21.742 134.28 22.078C134.1 22.414 134.01 22.762 134.01 23.122C134.01 23.578 134.19 23.956 134.55 24.256C134.91 24.556 135.576 24.706 136.548 24.706H139.968C141.24 24.706 142.38 24.934 143.388 25.39C144.408 25.846 145.206 26.458 145.782 27.226C146.37 27.994 146.664 28.87 146.664 29.854C146.664 31.714 145.872 33.142 144.288 34.138C142.716 35.134 140.49 35.632 137.61 35.632C135.594 35.632 134.004 35.422 132.84 35.002C131.676 34.594 130.842 33.964 130.338 33.112C129.846 32.272 129.6 31.21 129.6 29.926H132.336C132.336 30.658 132.48 31.264 132.768 31.744C133.056 32.224 133.578 32.578 134.334 32.806C135.09 33.046 136.176 33.166 137.592 33.166C138.984 33.166 140.118 33.046 140.994 32.806C141.882 32.578 142.536 32.23 142.956 31.762C143.388 31.306 143.604 30.736 143.604 30.052C143.604 29.152 143.196 28.474 142.38 28.018C141.564 27.562 140.544 27.334 139.32 27.334H135.936C134.304 27.334 133.098 26.974 132.318 26.254C131.55 25.534 131.166 24.706 131.166 23.77C131.166 23.158 131.34 22.564 131.688 21.988C132.048 21.412 132.57 20.902 133.254 20.458C132.162 19.882 131.358 19.168 130.842 18.316C130.326 17.464 130.068 16.432 130.068 15.22C130.068 13.936 130.386 12.802 131.022 11.818C131.658 10.822 132.546 10.042 133.686 9.478C134.826 8.914 136.14 8.632 137.628 8.632C139.224 8.62 140.52 8.554 141.516 8.434C142.512 8.302 143.364 8.116 144.072 7.876C144.792 7.636 145.524 7.354 146.268 7.03ZM137.628 10.846C136.104 10.846 134.976 11.26 134.244 12.088C133.524 12.904 133.164 13.948 133.164 15.22C133.164 16.504 133.536 17.56 134.28 18.388C135.024 19.216 136.164 19.63 137.7 19.63C139.044 19.63 140.064 19.24 140.76 18.46C141.468 17.68 141.822 16.594 141.822 15.202C141.822 13.774 141.468 12.694 140.76 11.962C140.064 11.218 139.02 10.846 137.628 10.846ZM154.822 19.594C154.882 21.058 155.164 22.258 155.668 23.194C156.172 24.118 156.838 24.802 157.666 25.246C158.494 25.678 159.394 25.894 160.366 25.894C161.338 25.894 162.214 25.75 162.994 25.462C163.786 25.174 164.596 24.748 165.424 24.184L166.846 26.182C165.958 26.878 164.944 27.424 163.804 27.82C162.676 28.216 161.518 28.414 160.33 28.414C158.494 28.414 156.928 28 155.632 27.172C154.336 26.344 153.346 25.192 152.662 23.716C151.99 22.228 151.654 20.506 151.654 18.55C151.654 16.63 151.996 14.926 152.68 13.438C153.364 11.95 154.324 10.78 155.56 9.928C156.796 9.076 158.254 8.65 159.934 8.65C161.53 8.65 162.904 9.028 164.056 9.784C165.208 10.528 166.09 11.596 166.702 12.988C167.326 14.368 167.638 16.018 167.638 17.938C167.638 18.262 167.632 18.568 167.62 18.856C167.608 19.132 167.59 19.378 167.566 19.594H154.822ZM159.97 11.134C158.566 11.134 157.39 11.632 156.442 12.628C155.506 13.624 154.972 15.166 154.84 17.254H164.722C164.686 15.226 164.242 13.702 163.39 12.682C162.538 11.65 161.398 11.134 159.97 11.134ZM207.606 21.682H197.796L195.816 28H192.738L200.802 3.214H204.798L212.862 28H209.586L207.606 21.682ZM198.606 19.09H206.796L202.728 5.842L198.606 19.09ZM233.008 9.046L226.114 28H222.604L215.764 9.046H218.968L224.458 25.246L229.876 9.046H233.008ZM252.362 23.86C252.362 24.616 252.488 25.168 252.74 25.516C252.992 25.864 253.382 26.122 253.91 26.29L253.172 28.414C252.356 28.306 251.642 28.048 251.03 27.64C250.418 27.22 249.974 26.59 249.698 25.75C249.014 26.626 248.162 27.292 247.142 27.748C246.122 28.192 244.994 28.414 243.758 28.414C241.862 28.414 240.368 27.88 239.276 26.812C238.184 25.744 237.638 24.328 237.638 22.564C237.638 20.608 238.4 19.108 239.924 18.064C241.448 17.02 243.65 16.498 246.53 16.498H249.32V14.914C249.32 13.546 248.918 12.58 248.114 12.016C247.322 11.44 246.218 11.152 244.802 11.152C244.178 11.152 243.446 11.23 242.606 11.386C241.766 11.53 240.854 11.776 239.87 12.124L239.078 9.838C240.242 9.406 241.334 9.1 242.354 8.92C243.374 8.74 244.346 8.65 245.27 8.65C247.634 8.65 249.404 9.202 250.58 10.306C251.768 11.398 252.362 12.886 252.362 14.77V23.86ZM244.532 26.11C245.468 26.11 246.362 25.876 247.214 25.408C248.066 24.928 248.768 24.268 249.32 23.428V18.55H246.584C244.496 18.55 243.02 18.91 242.156 19.63C241.304 20.35 240.878 21.316 240.878 22.528C240.878 23.704 241.178 24.598 241.778 25.21C242.39 25.81 243.308 26.11 244.532 26.11ZM269.97 9.046V25.606H275.316V28H261.096V25.606H266.946V11.44H261.276V9.046H269.97ZM267.558 0.171998C268.23 0.171998 268.764 0.375998 269.16 0.783998C269.568 1.192 269.772 1.69 269.772 2.278C269.772 2.89 269.568 3.406 269.16 3.826C268.764 4.234 268.23 4.438 267.558 4.438C266.922 4.438 266.4 4.234 265.992 3.826C265.584 3.406 265.38 2.89 265.38 2.278C265.38 1.69 265.584 1.192 265.992 0.783998C266.4 0.375998 266.922 0.171998 267.558 0.171998ZM289.342 1.414V23.32C289.342 24.256 289.63 24.922 290.206 25.318C290.794 25.702 291.55 25.894 292.474 25.894C293.05 25.894 293.596 25.834 294.112 25.714C294.628 25.594 295.144 25.432 295.66 25.228L296.47 27.442C295.954 27.694 295.312 27.916 294.544 28.108C293.788 28.312 292.93 28.414 291.97 28.414C290.29 28.414 288.928 27.952 287.884 27.028C286.84 26.092 286.318 24.802 286.318 23.158V3.808H280.504V1.414H289.342ZM317.12 23.86C317.12 24.616 317.246 25.168 317.498 25.516C317.75 25.864 318.14 26.122 318.668 26.29L317.93 28.414C317.114 28.306 316.4 28.048 315.788 27.64C315.176 27.22 314.732 26.59 314.456 25.75C313.772 26.626 312.92 27.292 311.9 27.748C310.88 28.192 309.752 28.414 308.516 28.414C306.62 28.414 305.126 27.88 304.034 26.812C302.942 25.744 302.396 24.328 302.396 22.564C302.396 20.608 303.158 19.108 304.682 18.064C306.206 17.02 308.408 16.498 311.288 16.498H314.078V14.914C314.078 13.546 313.676 12.58 312.872 12.016C312.08 11.44 310.976 11.152 309.56 11.152C308.936 11.152 308.204 11.23 307.364 11.386C306.524 11.53 305.612 11.776 304.628 12.124L303.836 9.838C305 9.406 306.092 9.1 307.112 8.92C308.132 8.74 309.104 8.65 310.028 8.65C312.392 8.65 314.162 9.202 315.338 10.306C316.526 11.398 317.12 12.886 317.12 14.77V23.86ZM309.29 26.11C310.226 26.11 311.12 25.876 311.972 25.408C312.824 24.928 313.526 24.268 314.078 23.428V18.55H311.342C309.254 18.55 307.778 18.91 306.914 19.63C306.062 20.35 305.636 21.316 305.636 22.528C305.636 23.704 305.936 24.598 306.536 25.21C307.148 25.81 308.066 26.11 309.29 26.11ZM328.158 11.512C328.854 10.6 329.652 9.898 330.552 9.406C331.464 8.902 332.466 8.65 333.558 8.65C335.25 8.65 336.618 9.058 337.662 9.874C338.706 10.69 339.468 11.842 339.948 13.33C340.428 14.806 340.668 16.534 340.668 18.514C340.668 20.422 340.38 22.126 339.804 23.626C339.228 25.114 338.382 26.284 337.266 27.136C336.162 27.988 334.794 28.414 333.162 28.414C330.966 28.414 329.244 27.622 327.996 26.038L327.78 28H325.134V1.414L328.158 1.036V11.512ZM332.442 25.966C334.026 25.966 335.244 25.354 336.096 24.13C336.948 22.906 337.374 21.028 337.374 18.496C337.374 16.84 337.206 15.466 336.87 14.374C336.534 13.27 336.03 12.448 335.358 11.908C334.698 11.356 333.882 11.08 332.91 11.08C331.854 11.08 330.924 11.398 330.12 12.034C329.328 12.658 328.674 13.354 328.158 14.122V23.518C328.65 24.262 329.268 24.856 330.012 25.3C330.768 25.744 331.578 25.966 332.442 25.966ZM354.1 1.414V23.32C354.1 24.256 354.388 24.922 354.964 25.318C355.552 25.702 356.308 25.894 357.232 25.894C357.808 25.894 358.354 25.834 358.87 25.714C359.386 25.594 359.902 25.432 360.418 25.228L361.228 27.442C360.712 27.694 360.07 27.916 359.302 28.108C358.546 28.312 357.688 28.414 356.728 28.414C355.048 28.414 353.686 27.952 352.642 27.028C351.598 26.092 351.076 24.802 351.076 23.158V3.808H345.262V1.414H354.1ZM370.682 19.594C370.742 21.058 371.024 22.258 371.528 23.194C372.032 24.118 372.698 24.802 373.526 25.246C374.354 25.678 375.254 25.894 376.226 25.894C377.198 25.894 378.074 25.75 378.854 25.462C379.646 25.174 380.456 24.748 381.284 24.184L382.706 26.182C381.818 26.878 380.804 27.424 379.664 27.82C378.536 28.216 377.378 28.414 376.19 28.414C374.354 28.414 372.788 28 371.492 27.172C370.196 26.344 369.206 25.192 368.522 23.716C367.85 22.228 367.514 20.506 367.514 18.55C367.514 16.63 367.856 14.926 368.54 13.438C369.224 11.95 370.184 10.78 371.42 9.928C372.656 9.076 374.114 8.65 375.794 8.65C377.39 8.65 378.764 9.028 379.916 9.784C381.068 10.528 381.95 11.596 382.562 12.988C383.186 14.368 383.498 16.018 383.498 17.938C383.498 18.262 383.492 18.568 383.48 18.856C383.468 19.132 383.45 19.378 383.426 19.594H370.682ZM375.83 11.134C374.426 11.134 373.25 11.632 372.302 12.628C371.366 13.624 370.832 15.166 370.7 17.254H380.582C380.546 15.226 380.102 13.702 379.25 12.682C378.398 11.65 377.258 11.134 375.83 11.134Z" fill="#808080"/>
</svg>
