<svg width="100%" height="100%" viewBox="0 0 137 164" fill="none" xmlns="http://www.w3.org/2000/svg">
    <path d="M63.4577 70.1659L40.1644 121.077L31.3188 118.857L36.6174 77.3602L19.0204 115.77L9.98086 113.5L17.6005 58.6544L24.3511 60.349L17.0089 107.392L34.6956 69.5408L42.9592 71.6152L37.7649 112.602L57.2115 68.5979L63.4577 70.1659Z" fill="#569CD6"/>
    <path d="M102.849 62.3199C101.394 59.9589 99.7942 58.4029 98.0491 57.6517C96.3134 56.8652 94.5059 56.6472 92.6266 56.9978C90.7473 57.3483 88.8695 58.0311 86.993 59.0461L78.725 63.5182L89.3228 80.7149L97.3093 76.395C98.5055 75.748 99.6553 74.9748 100.759 74.0753C101.862 73.1759 102.759 72.1456 103.451 70.9845C104.166 69.8106 104.512 68.5189 104.487 67.1094C104.473 65.6645 103.927 64.068 102.849 62.3199ZM87.6093 41.7771C85.9724 39.1209 83.9551 37.6997 81.5573 37.5135C79.169 37.2918 76.5089 37.9739 73.577 39.5598L66.3644 43.461L75.724 58.6486L83.5347 54.4239C86.3962 52.8761 88.2116 51.0769 88.9807 49.0264C89.7593 46.9404 89.3022 44.524 87.6093 41.7771ZM109.162 58.6331C110.729 61.1757 111.516 63.5951 111.524 65.8914C111.555 68.175 111.006 70.3033 109.876 72.2764C108.77 74.2368 107.278 76.0276 105.4 77.6489C103.531 79.2347 101.483 80.6302 99.2548 81.8355L86.237 88.8767L57.3398 41.9858L69.2668 35.5346C71.4013 34.3801 73.596 33.4502 75.851 32.7451C78.1155 32.0046 80.3367 31.6507 82.5148 31.6833C84.7023 31.6806 86.7573 32.1734 88.6797 33.1616C90.6022 34.1498 92.27 35.7903 93.683 38.0832C94.9282 40.1037 95.5505 42.0524 95.5501 43.9293C95.5591 45.7708 95.1305 47.4859 94.2643 49.0744C93.4215 50.6502 92.331 52.027 90.9928 53.2049C92.9668 52.5004 95.043 52.0887 97.2215 51.9698C99.4094 51.8156 101.544 52.2349 103.626 53.2277C105.694 54.1979 107.539 55.9997 109.162 58.6331Z" fill="#4EC9B0"/>
    <path d="M110.35 105.906L106.361 108.064C105.815 107.179 105.252 106.448 104.672 105.872C104.092 105.296 103.481 104.945 102.841 104.819C102.209 104.707 101.527 104.894 100.795 105.381L94.1637 109.921C92.8205 110.847 91.5615 111.347 90.3865 111.419C89.234 111.498 88.1428 111.234 87.113 110.629C86.0973 110.016 85.1174 109.157 84.1733 108.051C84.7512 109.446 85.0654 110.701 85.1157 111.818C85.1885 112.941 84.8921 113.937 84.2265 114.806C83.5833 115.68 82.4767 116.442 80.9067 117.092L73.3942 120.202C72.5922 120.545 72.0851 121 71.8728 121.569C71.6547 122.16 71.667 122.834 71.9094 123.593C72.1602 124.365 72.5543 125.187 73.0915 126.059L69.1017 128.217C68.1028 126.596 67.3565 125.111 66.8627 123.762C66.3689 122.412 66.1671 121.187 66.2572 120.085C66.3333 118.99 66.7379 118.017 67.4709 117.167C68.2124 116.33 69.3146 115.607 70.7778 114.997L77.9273 112.029C79.0359 111.574 79.7781 110.982 80.1539 110.252C80.5437 109.515 80.5953 108.624 80.3087 107.581C80.0445 106.543 79.4802 105.323 78.6156 103.92L83.1331 101.476C83.9893 102.866 84.8281 103.937 85.6495 104.692C86.485 105.439 87.3341 105.842 88.1967 105.902C89.0734 105.955 89.9919 105.648 90.9521 104.984L97.2706 100.667C98.5715 99.7637 99.7942 99.2205 100.939 99.0374C102.091 98.8679 103.193 99.0259 104.242 99.5114C105.306 99.9894 106.338 100.766 107.339 101.841C108.348 102.93 109.351 104.285 110.35 105.906ZM117.341 117.25C118.34 118.871 119.087 120.356 119.58 121.705C120.074 123.055 120.276 124.28 120.186 125.383C120.11 126.477 119.705 127.45 118.972 128.3C118.239 129.151 117.137 129.874 115.665 130.47L108.495 133.45C107.4 133.896 106.666 134.502 106.293 135.267C105.934 136.024 105.887 136.922 106.151 137.959C106.438 139.003 106.997 140.199 107.828 141.547L103.31 143.991C102.487 142.656 101.658 141.615 100.823 140.868C100.001 140.114 99.144 139.697 98.2505 139.617C97.371 139.53 96.4442 139.822 95.4699 140.495L89.1725 144.8C87.8716 145.703 86.6447 146.24 85.492 146.409C84.3476 146.592 83.2505 146.441 82.2007 145.956C81.1368 145.478 80.1005 144.694 79.0917 143.605C78.0913 142.53 77.0916 141.182 76.0927 139.561L80.0825 137.403C80.6281 138.288 81.191 139.019 81.7712 139.595C82.3514 140.171 82.9646 140.512 83.6107 140.616C84.2512 140.742 84.9304 140.565 85.6484 140.086L92.2795 135.546C93.6648 134.597 94.9267 134.087 96.0651 134.016C97.2261 133.951 98.3228 134.239 99.3553 134.879C100.388 135.519 101.39 136.43 102.362 137.611C101.759 136.176 101.42 134.879 101.344 133.721C101.283 132.556 101.58 131.532 102.238 130.65C102.895 129.768 103.995 129.01 105.536 128.375L113.049 125.265C113.865 124.915 114.375 124.448 114.579 123.866C114.791 123.297 114.776 122.633 114.534 121.874C114.291 121.116 113.897 120.293 113.352 119.408L117.341 117.25Z" fill="#FFD700"/>
</svg>
