<svg width="100%" height="100%" viewBox="0 0 843 94" fill="none" xmlns="http://www.w3.org/2000/svg">
    <path d="M47.64 23.92L39.24 79H30.12L23.8 37.44L17.44 79H8.12L0.36 23.92H7.32L13.2 71.36L19.8 30.32H28.32L34.6 71.36L41.2 23.92H47.64ZM57.2888 60.32C57.4221 63.5733 58.0488 66.24 59.1688 68.32C60.2888 70.3733 61.7688 71.8933 63.6088 72.88C65.4488 73.84 67.4488 74.32 69.6088 74.32C71.7688 74.32 73.7154 74 75.4488 73.36C77.2088 72.72 79.0088 71.7733 80.8488 70.52L84.0088 74.96C82.0354 76.5067 79.7821 77.72 77.2488 78.6C74.7421 79.48 72.1688 79.92 69.5288 79.92C65.4488 79.92 61.9688 79 59.0888 77.16C56.2088 75.32 54.0088 72.76 52.4888 69.48C50.9954 66.1733 50.2488 62.3467 50.2488 58C50.2488 53.7333 51.0088 49.9467 52.5288 46.64C54.0488 43.3333 56.1821 40.7333 58.9288 38.84C61.6754 36.9467 64.9154 36 68.6488 36C72.1954 36 75.2488 36.84 77.8088 38.52C80.3688 40.1733 82.3288 42.5467 83.6888 45.64C85.0754 48.7067 85.7688 52.3733 85.7688 56.64C85.7688 57.36 85.7554 58.04 85.7288 58.68C85.7021 59.2933 85.6621 59.84 85.6088 60.32H57.2888ZM68.7288 41.52C65.6088 41.52 62.9954 42.6267 60.8888 44.84C58.8088 47.0533 57.6221 50.48 57.3288 55.12H79.2888C79.2088 50.6133 78.2221 47.2267 76.3288 44.96C74.4354 42.6667 71.9021 41.52 68.7288 41.52ZM102.698 42.36C104.244 40.3333 106.018 38.7733 108.018 37.68C110.044 36.56 112.271 36 114.698 36C118.458 36 121.498 36.9067 123.818 38.72C126.138 40.5333 127.831 43.0933 128.898 46.4C129.964 49.68 130.498 53.52 130.498 57.92C130.498 62.16 129.858 65.9467 128.578 69.28C127.298 72.5867 125.418 75.1867 122.938 77.08C120.484 78.9733 117.444 79.92 113.818 79.92C108.938 79.92 105.111 78.16 102.338 74.64L101.858 79H95.9775V19.92L102.698 19.08V42.36ZM112.218 74.48C115.738 74.48 118.444 73.12 120.338 70.4C122.231 67.68 123.178 63.5067 123.178 57.88C123.178 54.2 122.804 51.1467 122.058 48.72C121.311 46.2667 120.191 44.44 118.698 43.24C117.231 42.0133 115.418 41.4 113.258 41.4C110.911 41.4 108.844 42.1067 107.058 43.52C105.298 44.9067 103.844 46.4533 102.698 48.16V69.04C103.791 70.6933 105.164 72.0133 106.818 73C108.498 73.9867 110.298 74.48 112.218 74.48ZM173.386 76.88C171.946 77.84 170.2 78.5867 168.146 79.12C166.093 79.6533 164.08 79.92 162.106 79.92C157.573 79.92 154.08 78.7333 151.626 76.36C149.173 73.9867 147.946 70.9333 147.946 67.2V42.08H138.266V36.88H147.946V27.32L154.666 26.52V36.88H169.226L168.426 42.08H154.666V67.12C154.666 69.4667 155.28 71.2533 156.506 72.48C157.76 73.7067 159.826 74.32 162.706 74.32C164.28 74.32 165.733 74.1333 167.066 73.76C168.4 73.3867 169.64 72.9067 170.786 72.32L173.386 76.88ZM189.195 60.32C189.328 63.5733 189.955 66.24 191.075 68.32C192.195 70.3733 193.675 71.8933 195.515 72.88C197.355 73.84 199.355 74.32 201.515 74.32C203.675 74.32 205.622 74 207.355 73.36C209.115 72.72 210.915 71.7733 212.755 70.52L215.915 74.96C213.942 76.5067 211.688 77.72 209.155 78.6C206.648 79.48 204.075 79.92 201.435 79.92C197.355 79.92 193.875 79 190.995 77.16C188.115 75.32 185.915 72.76 184.395 69.48C182.902 66.1733 182.155 62.3467 182.155 58C182.155 53.7333 182.915 49.9467 184.435 46.64C185.955 43.3333 188.088 40.7333 190.835 38.84C193.582 36.9467 196.822 36 200.555 36C204.102 36 207.155 36.84 209.715 38.52C212.275 40.1733 214.235 42.5467 215.595 45.64C216.982 48.7067 217.675 52.3733 217.675 56.64C217.675 57.36 217.662 58.04 217.635 58.68C217.608 59.2933 217.568 59.84 217.515 60.32H189.195ZM200.635 41.52C197.515 41.52 194.902 42.6267 192.795 44.84C190.715 47.0533 189.528 50.48 189.235 55.12H211.195C211.115 50.6133 210.128 47.2267 208.235 44.96C206.342 42.6667 203.808 41.52 200.635 41.52ZM246.924 74.12C249.03 74.12 250.99 73.7733 252.804 73.08C254.644 72.3867 256.337 71.5067 257.884 70.44L261.164 74.84C259.324 76.4133 257.11 77.6533 254.524 78.56C251.937 79.4667 249.404 79.92 246.924 79.92C242.737 79.92 239.164 79.0267 236.204 77.24C233.27 75.4267 231.03 72.8933 229.484 69.64C227.937 66.36 227.164 62.52 227.164 58.12C227.164 53.9067 227.937 50.1333 229.484 46.8C231.057 43.44 233.31 40.8 236.244 38.88C239.204 36.96 242.79 36 247.004 36C249.697 36 252.217 36.4133 254.564 37.24C256.937 38.04 259.11 39.2533 261.084 40.88L257.804 45.36C256.017 44.1067 254.217 43.1733 252.404 42.56C250.617 41.92 248.79 41.6 246.924 41.6C243.297 41.6 240.31 42.96 237.964 45.68C235.617 48.4 234.444 52.5467 234.444 58.12C234.444 61.8533 234.977 64.9067 236.044 67.28C237.137 69.6267 238.617 71.36 240.484 72.48C242.377 73.5733 244.524 74.12 246.924 74.12ZM278.573 19.28V42.64C280.226 40.4267 282.253 38.7733 284.653 37.68C287.079 36.56 289.533 36 292.013 36C296.119 36 299.119 37.0933 301.013 39.28C302.906 41.4667 303.853 44.5067 303.853 48.4V79H297.133V48.56C297.133 46.0267 296.546 44.1867 295.373 43.04C294.199 41.8667 292.359 41.28 289.853 41.28C288.253 41.28 286.733 41.64 285.293 42.36C283.853 43.08 282.559 43.9733 281.413 45.04C280.266 46.1067 279.319 47.2 278.573 48.32V79H271.853V20L278.573 19.28Z" fill="#569CD6"/>
    <path d="M370.84 63.52C370.84 60.7467 370.293 58.6133 369.2 57.12C368.133 55.6 366.707 54.5467 364.92 53.96C363.133 53.3733 361.173 53.08 359.04 53.08H349.64V73.28H358.72C360.08 73.28 361.467 73.1467 362.88 72.88C364.293 72.6133 365.6 72.1333 366.8 71.44C368.027 70.7467 369 69.7733 369.72 68.52C370.467 67.24 370.84 65.5733 370.84 63.52ZM368.64 38.16C368.64 35.04 367.667 32.8267 365.72 31.52C363.8 30.1867 361.173 29.52 357.84 29.52H349.64V47.36H358.52C361.773 47.36 364.267 46.64 366 45.2C367.76 43.7333 368.64 41.3867 368.64 38.16ZM378.16 63.28C378.16 66.2667 377.56 68.7733 376.36 70.8C375.187 72.8267 373.6 74.44 371.6 75.64C369.627 76.84 367.413 77.7067 364.96 78.24C362.533 78.7467 360.053 79 357.52 79H342.72V23.92H356.28C358.707 23.92 361.067 24.1467 363.36 24.6C365.68 25.0267 367.76 25.7733 369.6 26.84C371.467 27.88 372.96 29.2933 374.08 31.08C375.2 32.8667 375.76 35.1067 375.76 37.8C375.76 40.1733 375.267 42.1867 374.28 43.84C373.32 45.4667 372.053 46.7733 370.48 47.76C368.933 48.7467 367.28 49.44 365.52 49.84C367.573 50.16 369.56 50.7867 371.48 51.72C373.427 52.6267 375.027 54.0133 376.28 55.88C377.533 57.72 378.16 60.1867 378.16 63.28ZM403.049 36C407.022 36 410.342 36.9067 413.009 38.72C415.702 40.5067 417.715 43.04 419.049 46.32C420.409 49.6 421.089 53.4667 421.089 57.92C421.089 62.2133 420.395 66.0133 419.009 69.32C417.622 72.6267 415.582 75.2267 412.889 77.12C410.222 78.9867 406.915 79.92 402.969 79.92C399.022 79.92 395.702 79.0133 393.009 77.2C390.315 75.3867 388.275 72.84 386.889 69.56C385.529 66.2533 384.849 62.4 384.849 58C384.849 53.6533 385.542 49.8267 386.929 46.52C388.315 43.2133 390.355 40.64 393.049 38.8C395.769 36.9333 399.102 36 403.049 36ZM403.049 41.48C399.422 41.48 396.675 42.8267 394.809 45.52C392.969 48.1867 392.049 52.3467 392.049 58C392.049 63.5467 392.955 67.6667 394.769 70.36C396.609 73.0533 399.342 74.4 402.969 74.4C406.595 74.4 409.315 73.0533 411.129 70.36C412.969 67.6667 413.889 63.52 413.889 57.92C413.889 52.32 412.982 48.1867 411.169 45.52C409.355 42.8267 406.649 41.48 403.049 41.48ZM447.018 36C450.991 36 454.311 36.9067 456.978 38.72C459.671 40.5067 461.684 43.04 463.018 46.32C464.378 49.6 465.058 53.4667 465.058 57.92C465.058 62.2133 464.364 66.0133 462.978 69.32C461.591 72.6267 459.551 75.2267 456.858 77.12C454.191 78.9867 450.884 79.92 446.938 79.92C442.991 79.92 439.671 79.0133 436.978 77.2C434.284 75.3867 432.244 72.84 430.858 69.56C429.498 66.2533 428.817 62.4 428.817 58C428.817 53.6533 429.511 49.8267 430.898 46.52C432.284 43.2133 434.324 40.64 437.018 38.8C439.738 36.9333 443.071 36 447.018 36ZM447.018 41.48C443.391 41.48 440.644 42.8267 438.778 45.52C436.938 48.1867 436.018 52.3467 436.018 58C436.018 63.5467 436.924 67.6667 438.738 70.36C440.578 73.0533 443.311 74.4 446.938 74.4C450.564 74.4 453.284 73.0533 455.098 70.36C456.938 67.6667 457.858 63.52 457.858 57.92C457.858 52.32 456.951 48.1867 455.138 45.52C453.324 42.8267 450.618 41.48 447.018 41.48ZM510.226 36.88L491.266 55.84L512.426 79H503.586L482.866 56L501.506 36.88H510.226ZM482.106 19.08V79H475.386V19.92L482.106 19.08ZM533.235 74.36C536.462 74.36 539.008 73.76 540.875 72.56C542.768 71.3333 543.715 69.7067 543.715 67.68C543.715 66.4 543.475 65.2933 542.995 64.36C542.542 63.4267 541.595 62.5867 540.155 61.84C538.715 61.0933 536.502 60.3467 533.515 59.6C530.608 58.88 528.075 58.0533 525.915 57.12C523.782 56.16 522.115 54.92 520.915 53.4C519.742 51.88 519.155 49.9067 519.155 47.48C519.155 45.1067 519.822 43.0667 521.155 41.36C522.515 39.6267 524.395 38.3067 526.795 37.4C529.195 36.4667 531.982 36 535.155 36C538.542 36 541.488 36.4533 543.995 37.36C546.528 38.24 548.675 39.3333 550.435 40.64L547.475 45.2C545.875 44.1067 544.115 43.2133 542.195 42.52C540.275 41.8 537.955 41.44 535.235 41.44C531.928 41.44 529.582 41.96 528.195 43C526.808 44.0133 526.115 45.3333 526.115 46.96C526.115 48.1867 526.448 49.2133 527.115 50.04C527.808 50.84 528.968 51.5733 530.595 52.24C532.222 52.88 534.462 53.5867 537.315 54.36C540.062 55.08 542.448 55.9467 544.475 56.96C546.528 57.9733 548.128 59.3067 549.275 60.96C550.422 62.6133 550.995 64.7467 550.995 67.36C550.995 70.3467 550.142 72.7733 548.435 74.64C546.728 76.48 544.515 77.8267 541.795 78.68C539.102 79.5067 536.248 79.92 533.235 79.92C529.422 79.92 526.168 79.3733 523.475 78.28C520.808 77.16 518.568 75.8133 516.755 74.24L520.595 69.8C522.248 71.16 524.142 72.2667 526.275 73.12C528.435 73.9467 530.755 74.36 533.235 74.36ZM596.324 76.88C594.884 77.84 593.137 78.5867 591.084 79.12C589.03 79.6533 587.017 79.92 585.044 79.92C580.51 79.92 577.017 78.7333 574.564 76.36C572.11 73.9867 570.884 70.9333 570.884 67.2V42.08H561.204V36.88H570.884V27.32L577.604 26.52V36.88H592.164L591.364 42.08H577.604V67.12C577.604 69.4667 578.217 71.2533 579.444 72.48C580.697 73.7067 582.764 74.32 585.644 74.32C587.217 74.32 588.67 74.1333 590.004 73.76C591.337 73.3867 592.577 72.9067 593.724 72.32L596.324 76.88ZM622.893 36C626.866 36 630.186 36.9067 632.853 38.72C635.546 40.5067 637.559 43.04 638.893 46.32C640.253 49.6 640.933 53.4667 640.933 57.92C640.933 62.2133 640.239 66.0133 638.853 69.32C637.466 72.6267 635.426 75.2267 632.733 77.12C630.066 78.9867 626.759 79.92 622.813 79.92C618.866 79.92 615.546 79.0133 612.853 77.2C610.159 75.3867 608.119 72.84 606.733 69.56C605.373 66.2533 604.692 62.4 604.692 58C604.692 53.6533 605.386 49.8267 606.773 46.52C608.159 43.2133 610.199 40.64 612.893 38.8C615.613 36.9333 618.946 36 622.893 36ZM622.893 41.48C619.266 41.48 616.519 42.8267 614.653 45.52C612.813 48.1867 611.893 52.3467 611.893 58C611.893 63.5467 612.799 67.6667 614.613 70.36C616.453 73.0533 619.186 74.4 622.813 74.4C626.439 74.4 629.159 73.0533 630.973 70.36C632.813 67.6667 633.733 63.52 633.733 57.92C633.733 52.32 632.826 48.1867 631.013 45.52C629.199 42.8267 626.493 41.48 622.893 41.48ZM651.221 79V73.84H657.781V42.04H651.221V36.88H662.901L664.141 46.84C665.768 43.3733 667.741 40.6933 670.061 38.8C672.381 36.9067 675.448 35.96 679.261 35.96C680.435 35.96 681.475 36.0533 682.381 36.24C683.315 36.4 684.261 36.6133 685.221 36.88L683.261 42.88C682.381 42.64 681.581 42.4667 680.861 42.36C680.141 42.2267 679.315 42.16 678.381 42.16C675.155 42.16 672.381 43.3067 670.061 45.6C667.741 47.8933 665.888 51.36 664.501 56V73.84H673.061V79H651.221ZM678.741 51.12V41.96L679.421 36.88H685.221L684.261 51.12H678.741ZM700.07 60.32C700.203 63.5733 700.83 66.24 701.95 68.32C703.07 70.3733 704.55 71.8933 706.39 72.88C708.23 73.84 710.23 74.32 712.39 74.32C714.55 74.32 716.497 74 718.23 73.36C719.99 72.72 721.79 71.7733 723.63 70.52L726.79 74.96C724.817 76.5067 722.563 77.72 720.03 78.6C717.523 79.48 714.95 79.92 712.31 79.92C708.23 79.92 704.75 79 701.87 77.16C698.99 75.32 696.79 72.76 695.27 69.48C693.777 66.1733 693.03 62.3467 693.03 58C693.03 53.7333 693.79 49.9467 695.31 46.64C696.83 43.3333 698.963 40.7333 701.71 38.84C704.457 36.9467 707.697 36 711.43 36C714.977 36 718.03 36.84 720.59 38.52C723.15 40.1733 725.11 42.5467 726.47 45.64C727.857 48.7067 728.55 52.3733 728.55 56.64C728.55 57.36 728.537 58.04 728.51 58.68C728.483 59.2933 728.443 59.84 728.39 60.32H700.07ZM711.51 41.52C708.39 41.52 705.777 42.6267 703.67 44.84C701.59 47.0533 700.403 50.48 700.11 55.12H722.07C721.99 50.6133 721.003 47.2267 719.11 44.96C717.217 42.6667 714.683 41.52 711.51 41.52Z" fill="#4EC9B0"/>
    <path d="M781.12 12.16V17.44C779.173 17.44 777.4 17.64 775.8 18.04C774.227 18.4133 773 19.0667 772.12 20C771.267 20.9333 770.907 22.2133 771.04 23.84L772.72 40.24C772.96 42.48 772.827 44.3333 772.32 45.8C771.813 47.2667 770.96 48.4133 769.76 49.24C768.587 50.0667 767.08 50.6533 765.24 51C767.107 51.32 768.64 51.88 769.84 52.68C771.04 53.4533 771.88 54.5733 772.36 56.04C772.84 57.48 772.96 59.3867 772.72 61.76L771.04 78.16C770.907 79.8133 771.267 81.1067 772.12 82.04C772.973 82.9733 774.2 83.6267 775.8 84C777.4 84.3733 779.173 84.56 781.12 84.56V89.84C778.88 89.84 776.733 89.64 774.68 89.24C772.627 88.8667 770.813 88.2133 769.24 87.28C767.667 86.3467 766.48 85.0667 765.68 83.44C764.88 81.84 764.613 79.8133 764.88 77.36L766.48 62.16C766.693 60.32 766.52 58.7733 765.96 57.52C765.427 56.2667 764.253 55.32 762.44 54.68C760.653 54.0133 757.973 53.68 754.4 53.68V48.32C757.973 48.32 760.653 48 762.44 47.36C764.253 46.72 765.427 45.7733 765.96 44.52C766.52 43.2667 766.693 41.7333 766.48 39.92L764.88 24.64C764.613 22.1867 764.88 20.16 765.68 18.56C766.48 16.9333 767.653 15.6533 769.2 14.72C770.773 13.7867 772.587 13.1333 774.64 12.76C776.72 12.36 778.88 12.16 781.12 12.16ZM800.849 12.16C803.089 12.16 805.235 12.36 807.289 12.76C809.342 13.1333 811.155 13.7867 812.729 14.72C814.302 15.6533 815.489 16.9333 816.289 18.56C817.115 20.16 817.382 22.1867 817.089 24.64L815.489 39.92C815.275 41.7333 815.502 43.2667 816.169 44.52C816.862 45.7733 818.115 46.72 819.929 47.36C821.742 48 824.289 48.32 827.569 48.32V53.68C824.315 53.68 821.769 54.0133 819.929 54.68C818.115 55.32 816.862 56.2667 816.169 57.52C815.502 58.7733 815.275 60.32 815.489 62.16L817.089 77.36C817.355 79.8133 817.089 81.84 816.289 83.44C815.489 85.0667 814.302 86.3467 812.729 87.28C811.182 88.2133 809.369 88.8667 807.289 89.24C805.235 89.64 803.089 89.84 800.849 89.84V84.56C802.795 84.56 804.555 84.3733 806.129 84C807.729 83.6267 808.969 82.9733 809.849 82.04C810.729 81.1067 811.089 79.8133 810.929 78.16L809.249 61.76C809.009 59.3867 809.142 57.48 809.649 56.04C810.155 54.5733 811.062 53.4533 812.369 52.68C813.702 51.9067 815.449 51.3733 817.609 51.08C815.529 50.7333 813.822 50.1333 812.489 49.28C811.182 48.4267 810.262 47.2667 809.729 45.8C809.195 44.3333 809.035 42.48 809.249 40.24L810.929 23.84C811.089 22.2133 810.729 20.9333 809.849 20C808.969 19.0667 807.742 18.4133 806.169 18.04C804.595 17.64 802.822 17.44 800.849 17.44V12.16Z" fill="#FFD700"/>
</svg>